<?xml version="1.0" encoding="iso-8859-1"?>
<!-- Generator: Adobe Illustrator 19.0.0, SVG Export Plug-In . SVG Version: 6.00 Build 0)  -->
<svg version="1.1" id="Capa_1" xmlns="http://www.w3.org/2000/svg" xmlns:xlink="http://www.w3.org/1999/xlink" x="0px" y="0px"
	 viewBox="0 0 511.998 511.998" style="enable-background:new 0 0 511.998 511.998;" xml:space="preserve">
<g>
	<g>
		<path d="M499.848,177.735C472.226,91.662,400.322,25.937,312.199,6.209C259.711-5.542,203.941-0.429,154.559,20.92
			C61.653,61.083,0,154.875,0,256.046c0,27.158,4.379,54.301,12.848,80.098c4.489,13.674,10.127,26.969,16.871,39.686
			c1.94,3.661,6.481,5.054,10.141,3.112c3.659-1.941,5.054-6.481,3.112-10.141c-5.722-10.789-10.636-22.055-14.635-33.541
			c0.938-1.187,1.879-2.372,2.83-3.549c13.751-16.999,28.835-32.929,45.026-47.621c16.999-15.466,35.234-29.392,54.177-42.383
			c0.945-0.632,18.43-11.203,18.256-11.571c0.057,0.121,0.122,0.238,0.18,0.359c1.424,2.992,3.063,5.876,4.896,8.637
			c6.835,10.315,16.294,18.739,27.42,24.325c2.198,1.104,4.468,2.117,6.769,2.987c-3.767,17.169-6.103,34.626-7.788,52.112
			c-1.851,19.301-2.719,38.562-2.757,57.953c-0.071,36.547,2.804,73.12,8.435,109.228c0.051,0.326,0.097,0.647,0.149,0.974
			c-51.362-15.589-96.278-48.109-127.382-92.481c-2.378-3.392-7.056-4.215-10.448-1.836s-4.215,7.056-1.836,10.448
			c35.406,50.506,87.669,86.557,147.164,101.511c82.719,20.793,172.328-1.74,235.279-59.275
			c25.995-23.758,46.48-52.019,60.884-83.995C515.397,303.795,519.045,237.548,499.848,177.735z M143.408,185.764
			c-0.008,0.041-0.018,0.08-0.026,0.121c-1.959,9.566-1.893,19.62,0.165,29.167c0.042,0.194,0.071,0.391,0.114,0.584
			c-0.154,0.091-0.316,0.188-0.471,0.28c-21.39,12.619-41.719,27.094-60.827,42.952c-21.364,17.73-41.202,37.329-58.973,58.666
			c-0.111,0.133-0.223,0.262-0.352,0.417c-5.337-20.129-8.036-40.889-8.036-61.904c0-60.697,22.431-118.24,63.313-162.807
			c0.127,0.105,0.254,0.21,0.381,0.315c20.332,16.839,39.495,35.116,57.479,54.439c5.137,5.519,10.205,11.109,15.076,16.865
			c0.017,0.02,0.032,0.038,0.049,0.058C147.561,171.431,144.912,178.455,143.408,185.764z M130.799,120.763
			c-13.358-13.336-27.311-26.123-41.832-38.186c-0.047-0.039-0.093-0.078-0.14-0.117c20.928-20.187,45.007-36.238,71.684-47.77
			c30.201-13.056,62.34-19.676,95.523-19.676c13.472,0,26.94,1.124,40.19,3.349c-2.344,2.719-4.645,5.476-6.928,8.246
			c-10.994,13.341-21.136,27.38-30.529,41.89c-11.782,18.181-21.827,37.142-31.503,56.494c-0.828,1.754-1.645,3.513-2.449,5.279
			c-0.171-0.03-0.344-0.049-0.515-0.077c-18.929-3.078-38.674,1.749-54.02,13.273c-3.547,2.664-6.871,5.652-9.892,8.973
			C150.942,141.501,141.027,130.972,130.799,120.763z M157.504,207.955c-2.058-14.591,1.846-29.679,10.792-41.4
			c7.651-10.025,18.628-17.549,30.985-20.639c0.05-0.012,0.1-0.022,0.15-0.035c32.354-7.928,64.93,15.156,68.848,48.036
			c3.593,30.155-20.016,58.864-50.085,61.785C189.302,258.509,161.563,236.753,157.504,207.955z M256.034,497.078
			c-18.283,0-36.496-2.062-54.21-6.133c-0.82-4.902-1.591-9.81-2.306-14.728c-7.455-51.23-9.365-103.434-4.512-155.005
			c1.594-16.958,3.704-34.145,7.418-50.86c0.01-0.049,0.02-0.094,0.031-0.142c0.005,0.221,6.387,0.639,7.121,0.673
			c11.665,0.533,23.401-1.848,33.923-6.916c3.797-1.829,7.445-3.99,10.894-6.481c9.484,14.03,19.373,27.791,29.534,41.339
			c23.676,31.567,48.789,62.116,75.893,90.81c15.983,16.92,32.661,33.206,50.329,48.368c0.327,0.281,1.648,1.414,1.983,1.698
			C368.573,476.766,313.482,497.078,256.034,497.078z M475.915,354.924c-12.669,28.123-30.335,53.195-52.564,74.613
			c-0.816-0.688-1.63-1.378-2.444-2.073c-18.406-15.711-35.545-32.762-52.224-50.278c-0.024-0.025-0.048-0.05-0.071-0.075
			c-22.842-24.366-44.094-50.137-64.547-76.527c-11.731-15.171-23.247-30.612-33.886-46.571c-0.369-0.538-4.808-6.417-4.554-6.701
			c3.25-3.643,6.063-7.624,8.536-11.83c5.217-9.063,8.437-19.335,9.276-29.763c0.06-0.018,0.123-0.037,0.185-0.055
			c2.159-0.634,4.324-1.251,6.493-1.849c15.87-4.394,32.167-8.45,48.456-10.956c10.366-1.803,20.742-3.486,31.182-4.812
			c10.165-1.31,20.375-2.307,30.599-3.024c4.06-0.284,7.243-3.943,6.958-8.007c-0.285-4.068-3.941-7.245-8.007-6.958
			c-11.403,0.799-22.85,1.822-34.17,3.439c-8.466,1.106-16.909,2.393-25.32,3.856c-18.941,3.293-38.094,7.561-56.742,12.827
			c-0.032,0.009-0.068,0.02-0.1,0.029c-1.349-9.545-4.681-18.789-9.705-27.014c-7.623-12.478-19.036-22.518-32.917-28.376
			c-0.311-0.131-0.619-0.269-0.932-0.396c0.031-0.067,0.06-0.131,0.092-0.199c9.998-21.544,21.658-42.304,34.804-62.083
			c10.102-15.199,21.096-29.817,32.999-43.653c1.926-2.238,3.875-4.456,5.849-6.652c77.182,18.77,140.579,75.144,168.507,149.304
			c-0.667-0.07-30.21-2.354-44.332-2.354c-2.52-0.011-5.049-0.008-7.588,0.021c-4.086,0.046-7.462,3.508-7.416,7.586
			c0.046,4.09,3.489,7.48,7.585,7.415c2.593-0.029,5.175-0.035,7.746-0.021c16.476,0.084,32.957,1.047,49.31,3.078
			c6.699,22.386,10.092,45.634,10.092,69.181C497.066,290.501,489.95,323.768,475.915,354.924z"  fill="#ffffff"/>
	</g>
</g>
</svg>
